<svg version="1.1" xmlns="http://www.w3.org/2000/svg" xmlns:xlink="http://www.w3.org/1999/xlink" x="0px" y="0px" width="256" height="256" viewBox="0 0 1155 1155" enable-background="new 0 0 1155 1155" xml:space="preserve">
	<rect x="0" y="0" width="1155" height="1155" fill="transparent" />
	<g transform="translate(70,70)">
		<g transform="translate(280,0)">
			<rect width="35.5" height="35.5" />
		</g>
		<g transform="translate(385,0)">
			<rect width="35.5" height="35.5" />
		</g>
		<g transform="translate(420,0)">
			<rect width="35.5" height="35.5" />
		</g>
		<g transform="translate(525,0)">
			<rect width="35.5" height="35.5" />
		</g>
		<g transform="translate(560,0)">
			<rect width="35.5" height="35.5" />
		</g>
		<g transform="translate(630,0)">
			<rect width="35.5" height="35.5" />
		</g>
		<g transform="translate(280,35)">
			<rect width="35.5" height="35.5" />
		</g>
		<g transform="translate(560,35)">
			<rect width="35.5" height="35.5" />
		</g>
		<g transform="translate(595,35)">
			<rect width="35.5" height="35.5" />
		</g>
		<g transform="translate(665,35)">
			<rect width="35.5" height="35.5" />
		</g>
		<g transform="translate(700,35)">
			<rect width="35.5" height="35.5" />
		</g>
		<g transform="translate(280,70)">
			<rect width="35.5" height="35.5" />
		</g>
		<g transform="translate(315,70)">
			<rect width="35.5" height="35.5" />
		</g>
		<g transform="translate(350,70)">
			<rect width="35.5" height="35.5" />
		</g>
		<g transform="translate(420,70)">
			<rect width="35.5" height="35.5" />
		</g>
		<g transform="translate(525,70)">
			<rect width="35.5" height="35.5" />
		</g>
		<g transform="translate(560,70)">
			<rect width="35.5" height="35.5" />
		</g>
		<g transform="translate(315,105)">
			<rect width="35.5" height="35.5" />
		</g>
		<g transform="translate(560,105)">
			<rect width="35.5" height="35.5" />
		</g>
		<g transform="translate(595,105)">
			<rect width="35.5" height="35.5" />
		</g>
		<g transform="translate(700,105)">
			<rect width="35.5" height="35.5" />
		</g>
		<g transform="translate(280,140)">
			<rect width="35.5" height="35.5" />
		</g>
		<g transform="translate(350,140)">
			<rect width="35.5" height="35.5" />
		</g>
		<g transform="translate(420,140)">
			<rect width="35.5" height="35.5" />
		</g>
		<g transform="translate(490,140)">
			<rect width="35.5" height="35.5" />
		</g>
		<g transform="translate(525,140)">
			<rect width="35.5" height="35.5" />
		</g>
		<g transform="translate(560,140)">
			<rect width="35.5" height="35.5" />
		</g>
		<g transform="translate(595,140)">
			<rect width="35.5" height="35.5" />
		</g>
		<g transform="translate(665,140)">
			<rect width="35.5" height="35.5" />
		</g>
		<g transform="translate(315,175)">
			<rect width="35.5" height="35.5" />
		</g>
		<g transform="translate(350,175)">
			<rect width="35.5" height="35.5" />
		</g>
		<g transform="translate(385,175)">
			<rect width="35.5" height="35.5" />
		</g>
		<g transform="translate(525,175)">
			<rect width="35.5" height="35.5" />
		</g>
		<g transform="translate(560,175)">
			<rect width="35.5" height="35.5" />
		</g>
		<g transform="translate(630,175)">
			<rect width="35.5" height="35.5" />
		</g>
		<g transform="translate(280,210)">
			<rect width="35.5" height="35.5" />
		</g>
		<g transform="translate(350,210)">
			<rect width="35.5" height="35.5" />
		</g>
		<g transform="translate(420,210)">
			<rect width="35.5" height="35.5" />
		</g>
		<g transform="translate(490,210)">
			<rect width="35.5" height="35.5" />
		</g>
		<g transform="translate(560,210)">
			<rect width="35.5" height="35.5" />
		</g>
		<g transform="translate(630,210)">
			<rect width="35.5" height="35.5" />
		</g>
		<g transform="translate(700,210)">
			<rect width="35.5" height="35.5" />
		</g>
		<g transform="translate(315,245)">
			<rect width="35.5" height="35.5" />
		</g>
		<g transform="translate(350,245)">
			<rect width="35.5" height="35.5" />
		</g>
		<g transform="translate(385,245)">
			<rect width="35.5" height="35.5" />
		</g>
		<g transform="translate(455,245)">
			<rect width="35.5" height="35.5" />
		</g>
		<g transform="translate(525,245)">
			<rect width="35.5" height="35.5" />
		</g>
		<g transform="translate(560,245)">
			<rect width="35.5" height="35.5" />
		</g>
		<g transform="translate(0,280)">
			<rect width="35.5" height="35.5" />
		</g>
		<g transform="translate(105,280)">
			<rect width="35.5" height="35.5" />
		</g>
		<g transform="translate(140,280)">
			<rect width="35.5" height="35.5" />
		</g>
		<g transform="translate(175,280)">
			<rect width="35.5" height="35.5" />
		</g>
		<g transform="translate(210,280)">
			<rect width="35.5" height="35.5" />
		</g>
		<g transform="translate(245,280)">
			<rect width="35.5" height="35.5" />
		</g>
		<g transform="translate(280,280)">
			<rect width="35.5" height="35.5" />
		</g>
		<g transform="translate(420,280)">
			<rect width="35.5" height="35.5" />
		</g>
		<g transform="translate(455,280)">
			<rect width="35.5" height="35.5" />
		</g>
		<g transform="translate(595,280)">
			<rect width="35.5" height="35.5" />
		</g>
		<g transform="translate(735,280)">
			<rect width="35.5" height="35.5" />
		</g>
		<g transform="translate(840,280)">
			<rect width="35.5" height="35.5" />
		</g>
		<g transform="translate(910,280)">
			<rect width="35.5" height="35.5" />
		</g>
		<g transform="translate(945,280)">
			<rect width="35.5" height="35.5" />
		</g>
		<g transform="translate(980,280)">
			<rect width="35.5" height="35.5" />
		</g>
		<g transform="translate(0,315)">
			<rect width="35.5" height="35.5" />
		</g>
		<g transform="translate(35,315)">
			<rect width="35.5" height="35.5" />
		</g>
		<g transform="translate(70,315)">
			<rect width="35.5" height="35.5" />
		</g>
		<g transform="translate(140,315)">
			<rect width="35.5" height="35.5" />
		</g>
		<g transform="translate(175,315)">
			<rect width="35.5" height="35.5" />
		</g>
		<g transform="translate(245,315)">
			<rect width="35.5" height="35.5" />
		</g>
		<g transform="translate(315,315)">
			<rect width="35.5" height="35.5" />
		</g>
		<g transform="translate(350,315)">
			<rect width="35.5" height="35.5" />
		</g>
		<g transform="translate(385,315)">
			<rect width="35.5" height="35.5" />
		</g>
		<g transform="translate(455,315)">
			<rect width="35.5" height="35.5" />
		</g>
		<g transform="translate(560,315)">
			<rect width="35.5" height="35.5" />
		</g>
		<g transform="translate(630,315)">
			<rect width="35.5" height="35.5" />
		</g>
		<g transform="translate(665,315)">
			<rect width="35.5" height="35.5" />
		</g>
		<g transform="translate(805,315)">
			<rect width="35.5" height="35.5" />
		</g>
		<g transform="translate(840,315)">
			<rect width="35.5" height="35.5" />
		</g>
		<g transform="translate(910,315)">
			<rect width="35.5" height="35.5" />
		</g>
		<g transform="translate(945,315)">
			<rect width="35.5" height="35.5" />
		</g>
		<g transform="translate(70,350)">
			<rect width="35.5" height="35.5" />
		</g>
		<g transform="translate(210,350)">
			<rect width="35.5" height="35.5" />
		</g>
		<g transform="translate(245,350)">
			<rect width="35.5" height="35.5" />
		</g>
		<g transform="translate(280,350)">
			<rect width="35.5" height="35.5" />
		</g>
		<g transform="translate(315,350)">
			<rect width="35.5" height="35.5" />
		</g>
		<g transform="translate(420,350)">
			<rect width="35.5" height="35.5" />
		</g>
		<g transform="translate(455,350)">
			<rect width="35.5" height="35.5" />
		</g>
		<g transform="translate(525,350)">
			<rect width="35.5" height="35.5" />
		</g>
		<g transform="translate(560,350)">
			<rect width="35.5" height="35.5" />
		</g>
		<g transform="translate(630,350)">
			<rect width="35.5" height="35.5" />
		</g>
		<g transform="translate(735,350)">
			<rect width="35.5" height="35.5" />
		</g>
		<g transform="translate(770,350)">
			<rect width="35.5" height="35.5" />
		</g>
		<g transform="translate(805,350)">
			<rect width="35.5" height="35.5" />
		</g>
		<g transform="translate(840,350)">
			<rect width="35.5" height="35.5" />
		</g>
		<g transform="translate(910,350)">
			<rect width="35.5" height="35.5" />
		</g>
		<g transform="translate(70,385)">
			<rect width="35.5" height="35.5" />
		</g>
		<g transform="translate(140,385)">
			<rect width="35.5" height="35.5" />
		</g>
		<g transform="translate(175,385)">
			<rect width="35.5" height="35.5" />
		</g>
		<g transform="translate(245,385)">
			<rect width="35.5" height="35.5" />
		</g>
		<g transform="translate(350,385)">
			<rect width="35.5" height="35.5" />
		</g>
		<g transform="translate(385,385)">
			<rect width="35.5" height="35.5" />
		</g>
		<g transform="translate(455,385)">
			<rect width="35.5" height="35.5" />
		</g>
		<g transform="translate(560,385)">
			<rect width="35.5" height="35.5" />
		</g>
		<g transform="translate(595,385)">
			<rect width="35.5" height="35.5" />
		</g>
		<g transform="translate(700,385)">
			<rect width="35.5" height="35.5" />
		</g>
		<g transform="translate(735,385)">
			<rect width="35.5" height="35.5" />
		</g>
		<g transform="translate(770,385)">
			<rect width="35.5" height="35.5" />
		</g>
		<g transform="translate(840,385)">
			<rect width="35.5" height="35.5" />
		</g>
		<g transform="translate(875,385)">
			<rect width="35.5" height="35.5" />
		</g>
		<g transform="translate(980,385)">
			<rect width="35.5" height="35.5" />
		</g>
		<g transform="translate(140,420)">
			<rect width="35.5" height="35.5" />
		</g>
		<g transform="translate(210,420)">
			<rect width="35.5" height="35.5" />
		</g>
		<g transform="translate(455,420)">
			<rect width="35.5" height="35.5" />
		</g>
		<g transform="translate(525,420)">
			<rect width="35.5" height="35.5" />
		</g>
		<g transform="translate(560,420)">
			<rect width="35.5" height="35.5" />
		</g>
		<g transform="translate(665,420)">
			<rect width="35.5" height="35.5" />
		</g>
		<g transform="translate(700,420)">
			<rect width="35.5" height="35.5" />
		</g>
		<g transform="translate(770,420)">
			<rect width="35.5" height="35.5" />
		</g>
		<g transform="translate(980,420)">
			<rect width="35.5" height="35.5" />
		</g>
		<g transform="translate(35,455)">
			<rect width="35.5" height="35.5" />
		</g>
		<g transform="translate(175,455)">
			<rect width="35.5" height="35.5" />
		</g>
		<g transform="translate(280,455)">
			<rect width="35.5" height="35.5" />
		</g>
		<g transform="translate(385,455)">
			<rect width="35.5" height="35.5" />
		</g>
		<g transform="translate(455,455)">
			<rect width="35.5" height="35.5" />
		</g>
		<g transform="translate(490,455)">
			<rect width="35.5" height="35.5" />
		</g>
		<g transform="translate(560,455)">
			<rect width="35.5" height="35.5" />
		</g>
		<g transform="translate(595,455)">
			<rect width="35.5" height="35.5" />
		</g>
		<g transform="translate(630,455)">
			<rect width="35.5" height="35.5" />
		</g>
		<g transform="translate(770,455)">
			<rect width="35.5" height="35.5" />
		</g>
		<g transform="translate(805,455)">
			<rect width="35.5" height="35.5" />
		</g>
		<g transform="translate(840,455)">
			<rect width="35.5" height="35.5" />
		</g>
		<g transform="translate(875,455)">
			<rect width="35.5" height="35.5" />
		</g>
		<g transform="translate(910,455)">
			<rect width="35.5" height="35.5" />
		</g>
		<g transform="translate(945,455)">
			<rect width="35.5" height="35.5" />
		</g>
		<g transform="translate(980,455)">
			<rect width="35.5" height="35.5" />
		</g>
		<g transform="translate(140,490)">
			<rect width="35.5" height="35.5" />
		</g>
		<g transform="translate(175,490)">
			<rect width="35.5" height="35.5" />
		</g>
		<g transform="translate(210,490)">
			<rect width="35.5" height="35.5" />
		</g>
		<g transform="translate(245,490)">
			<rect width="35.5" height="35.5" />
		</g>
		<g transform="translate(350,490)">
			<rect width="35.5" height="35.5" />
		</g>
		<g transform="translate(385,490)">
			<rect width="35.5" height="35.5" />
		</g>
		<g transform="translate(420,490)">
			<rect width="35.5" height="35.5" />
		</g>
		<g transform="translate(455,490)">
			<rect width="35.5" height="35.5" />
		</g>
		<g transform="translate(560,490)">
			<rect width="35.5" height="35.5" />
		</g>
		<g transform="translate(630,490)">
			<rect width="35.5" height="35.5" />
		</g>
		<g transform="translate(665,490)">
			<rect width="35.5" height="35.5" />
		</g>
		<g transform="translate(735,490)">
			<rect width="35.5" height="35.5" />
		</g>
		<g transform="translate(910,490)">
			<rect width="35.5" height="35.5" />
		</g>
		<g transform="translate(980,490)">
			<rect width="35.5" height="35.5" />
		</g>
		<g transform="translate(35,525)">
			<rect width="35.5" height="35.5" />
		</g>
		<g transform="translate(105,525)">
			<rect width="35.5" height="35.5" />
		</g>
		<g transform="translate(140,525)">
			<rect width="35.5" height="35.5" />
		</g>
		<g transform="translate(420,525)">
			<rect width="35.5" height="35.5" />
		</g>
		<g transform="translate(525,525)">
			<rect width="35.5" height="35.5" />
		</g>
		<g transform="translate(630,525)">
			<rect width="35.5" height="35.5" />
		</g>
		<g transform="translate(840,525)">
			<rect width="35.5" height="35.5" />
		</g>
		<g transform="translate(910,525)">
			<rect width="35.5" height="35.5" />
		</g>
		<g transform="translate(980,525)">
			<rect width="35.5" height="35.5" />
		</g>
		<g transform="translate(35,560)">
			<rect width="35.5" height="35.5" />
		</g>
		<g transform="translate(175,560)">
			<rect width="35.5" height="35.5" />
		</g>
		<g transform="translate(210,560)">
			<rect width="35.5" height="35.5" />
		</g>
		<g transform="translate(280,560)">
			<rect width="35.5" height="35.5" />
		</g>
		<g transform="translate(315,560)">
			<rect width="35.5" height="35.5" />
		</g>
		<g transform="translate(490,560)">
			<rect width="35.5" height="35.5" />
		</g>
		<g transform="translate(560,560)">
			<rect width="35.5" height="35.5" />
		</g>
		<g transform="translate(630,560)">
			<rect width="35.5" height="35.5" />
		</g>
		<g transform="translate(700,560)">
			<rect width="35.5" height="35.5" />
		</g>
		<g transform="translate(875,560)">
			<rect width="35.5" height="35.5" />
		</g>
		<g transform="translate(0,595)">
			<rect width="35.5" height="35.5" />
		</g>
		<g transform="translate(105,595)">
			<rect width="35.5" height="35.5" />
		</g>
		<g transform="translate(175,595)">
			<rect width="35.5" height="35.5" />
		</g>
		<g transform="translate(280,595)">
			<rect width="35.5" height="35.5" />
		</g>
		<g transform="translate(315,595)">
			<rect width="35.5" height="35.5" />
		</g>
		<g transform="translate(350,595)">
			<rect width="35.5" height="35.5" />
		</g>
		<g transform="translate(455,595)">
			<rect width="35.5" height="35.5" />
		</g>
		<g transform="translate(490,595)">
			<rect width="35.5" height="35.5" />
		</g>
		<g transform="translate(560,595)">
			<rect width="35.5" height="35.5" />
		</g>
		<g transform="translate(630,595)">
			<rect width="35.5" height="35.5" />
		</g>
		<g transform="translate(665,595)">
			<rect width="35.5" height="35.5" />
		</g>
		<g transform="translate(700,595)">
			<rect width="35.5" height="35.5" />
		</g>
		<g transform="translate(840,595)">
			<rect width="35.5" height="35.5" />
		</g>
		<g transform="translate(910,595)">
			<rect width="35.5" height="35.5" />
		</g>
		<g transform="translate(945,595)">
			<rect width="35.5" height="35.5" />
		</g>
		<g transform="translate(0,630)">
			<rect width="35.5" height="35.5" />
		</g>
		<g transform="translate(35,630)">
			<rect width="35.5" height="35.5" />
		</g>
		<g transform="translate(175,630)">
			<rect width="35.5" height="35.5" />
		</g>
		<g transform="translate(210,630)">
			<rect width="35.5" height="35.5" />
		</g>
		<g transform="translate(280,630)">
			<rect width="35.5" height="35.5" />
		</g>
		<g transform="translate(315,630)">
			<rect width="35.5" height="35.5" />
		</g>
		<g transform="translate(350,630)">
			<rect width="35.5" height="35.5" />
		</g>
		<g transform="translate(385,630)">
			<rect width="35.5" height="35.5" />
		</g>
		<g transform="translate(420,630)">
			<rect width="35.5" height="35.5" />
		</g>
		<g transform="translate(525,630)">
			<rect width="35.5" height="35.5" />
		</g>
		<g transform="translate(665,630)">
			<rect width="35.5" height="35.5" />
		</g>
		<g transform="translate(700,630)">
			<rect width="35.5" height="35.5" />
		</g>
		<g transform="translate(840,630)">
			<rect width="35.5" height="35.5" />
		</g>
		<g transform="translate(875,630)">
			<rect width="35.5" height="35.5" />
		</g>
		<g transform="translate(980,630)">
			<rect width="35.5" height="35.5" />
		</g>
		<g transform="translate(0,665)">
			<rect width="35.5" height="35.5" />
		</g>
		<g transform="translate(35,665)">
			<rect width="35.5" height="35.5" />
		</g>
		<g transform="translate(70,665)">
			<rect width="35.5" height="35.5" />
		</g>
		<g transform="translate(105,665)">
			<rect width="35.5" height="35.5" />
		</g>
		<g transform="translate(140,665)">
			<rect width="35.5" height="35.5" />
		</g>
		<g transform="translate(175,665)">
			<rect width="35.5" height="35.5" />
		</g>
		<g transform="translate(280,665)">
			<rect width="35.5" height="35.5" />
		</g>
		<g transform="translate(315,665)">
			<rect width="35.5" height="35.5" />
		</g>
		<g transform="translate(490,665)">
			<rect width="35.5" height="35.5" />
		</g>
		<g transform="translate(630,665)">
			<rect width="35.5" height="35.5" />
		</g>
		<g transform="translate(770,665)">
			<rect width="35.5" height="35.5" />
		</g>
		<g transform="translate(840,665)">
			<rect width="35.5" height="35.5" />
		</g>
		<g transform="translate(875,665)">
			<rect width="35.5" height="35.5" />
		</g>
		<g transform="translate(910,665)">
			<rect width="35.5" height="35.5" />
		</g>
		<g transform="translate(0,700)">
			<rect width="35.5" height="35.5" />
		</g>
		<g transform="translate(35,700)">
			<rect width="35.5" height="35.5" />
		</g>
		<g transform="translate(105,700)">
			<rect width="35.5" height="35.5" />
		</g>
		<g transform="translate(175,700)">
			<rect width="35.5" height="35.5" />
		</g>
		<g transform="translate(210,700)">
			<rect width="35.5" height="35.5" />
		</g>
		<g transform="translate(280,700)">
			<rect width="35.5" height="35.5" />
		</g>
		<g transform="translate(385,700)">
			<rect width="35.5" height="35.5" />
		</g>
		<g transform="translate(420,700)">
			<rect width="35.5" height="35.5" />
		</g>
		<g transform="translate(455,700)">
			<rect width="35.5" height="35.5" />
		</g>
		<g transform="translate(490,700)">
			<rect width="35.5" height="35.5" />
		</g>
		<g transform="translate(525,700)">
			<rect width="35.5" height="35.5" />
		</g>
		<g transform="translate(560,700)">
			<rect width="35.5" height="35.5" />
		</g>
		<g transform="translate(595,700)">
			<rect width="35.5" height="35.5" />
		</g>
		<g transform="translate(700,700)">
			<rect width="35.5" height="35.5" />
		</g>
		<g transform="translate(735,700)">
			<rect width="35.5" height="35.5" />
		</g>
		<g transform="translate(770,700)">
			<rect width="35.5" height="35.5" />
		</g>
		<g transform="translate(805,700)">
			<rect width="35.5" height="35.5" />
		</g>
		<g transform="translate(840,700)">
			<rect width="35.5" height="35.5" />
		</g>
		<g transform="translate(875,700)">
			<rect width="35.5" height="35.5" />
		</g>
		<g transform="translate(910,700)">
			<rect width="35.5" height="35.5" />
		</g>
		<g transform="translate(945,700)">
			<rect width="35.5" height="35.5" />
		</g>
		<g transform="translate(280,735)">
			<rect width="35.5" height="35.5" />
		</g>
		<g transform="translate(315,735)">
			<rect width="35.5" height="35.5" />
		</g>
		<g transform="translate(350,735)">
			<rect width="35.5" height="35.5" />
		</g>
		<g transform="translate(385,735)">
			<rect width="35.5" height="35.5" />
		</g>
		<g transform="translate(490,735)">
			<rect width="35.5" height="35.5" />
		</g>
		<g transform="translate(630,735)">
			<rect width="35.5" height="35.5" />
		</g>
		<g transform="translate(700,735)">
			<rect width="35.5" height="35.5" />
		</g>
		<g transform="translate(840,735)">
			<rect width="35.5" height="35.5" />
		</g>
		<g transform="translate(875,735)">
			<rect width="35.5" height="35.5" />
		</g>
		<g transform="translate(280,770)">
			<rect width="35.5" height="35.5" />
		</g>
		<g transform="translate(315,770)">
			<rect width="35.5" height="35.5" />
		</g>
		<g transform="translate(350,770)">
			<rect width="35.5" height="35.5" />
		</g>
		<g transform="translate(490,770)">
			<rect width="35.5" height="35.5" />
		</g>
		<g transform="translate(630,770)">
			<rect width="35.5" height="35.5" />
		</g>
		<g transform="translate(665,770)">
			<rect width="35.5" height="35.5" />
		</g>
		<g transform="translate(700,770)">
			<rect width="35.5" height="35.5" />
		</g>
		<g transform="translate(770,770)">
			<rect width="35.5" height="35.5" />
		</g>
		<g transform="translate(840,770)">
			<rect width="35.5" height="35.5" />
		</g>
		<g transform="translate(875,770)">
			<rect width="35.5" height="35.5" />
		</g>
		<g transform="translate(280,805)">
			<rect width="35.5" height="35.5" />
		</g>
		<g transform="translate(350,805)">
			<rect width="35.5" height="35.5" />
		</g>
		<g transform="translate(420,805)">
			<rect width="35.5" height="35.5" />
		</g>
		<g transform="translate(490,805)">
			<rect width="35.5" height="35.5" />
		</g>
		<g transform="translate(525,805)">
			<rect width="35.5" height="35.5" />
		</g>
		<g transform="translate(595,805)">
			<rect width="35.5" height="35.5" />
		</g>
		<g transform="translate(665,805)">
			<rect width="35.5" height="35.5" />
		</g>
		<g transform="translate(700,805)">
			<rect width="35.5" height="35.5" />
		</g>
		<g transform="translate(840,805)">
			<rect width="35.5" height="35.5" />
		</g>
		<g transform="translate(280,840)">
			<rect width="35.5" height="35.5" />
		</g>
		<g transform="translate(350,840)">
			<rect width="35.5" height="35.5" />
		</g>
		<g transform="translate(385,840)">
			<rect width="35.5" height="35.5" />
		</g>
		<g transform="translate(455,840)">
			<rect width="35.5" height="35.5" />
		</g>
		<g transform="translate(490,840)">
			<rect width="35.5" height="35.5" />
		</g>
		<g transform="translate(560,840)">
			<rect width="35.5" height="35.5" />
		</g>
		<g transform="translate(665,840)">
			<rect width="35.5" height="35.5" />
		</g>
		<g transform="translate(700,840)">
			<rect width="35.5" height="35.5" />
		</g>
		<g transform="translate(735,840)">
			<rect width="35.5" height="35.5" />
		</g>
		<g transform="translate(770,840)">
			<rect width="35.5" height="35.5" />
		</g>
		<g transform="translate(805,840)">
			<rect width="35.5" height="35.5" />
		</g>
		<g transform="translate(840,840)">
			<rect width="35.5" height="35.5" />
		</g>
		<g transform="translate(875,840)">
			<rect width="35.5" height="35.5" />
		</g>
		<g transform="translate(280,875)">
			<rect width="35.5" height="35.5" />
		</g>
		<g transform="translate(455,875)">
			<rect width="35.5" height="35.5" />
		</g>
		<g transform="translate(595,875)">
			<rect width="35.5" height="35.5" />
		</g>
		<g transform="translate(630,875)">
			<rect width="35.5" height="35.5" />
		</g>
		<g transform="translate(700,875)">
			<rect width="35.5" height="35.5" />
		</g>
		<g transform="translate(735,875)">
			<rect width="35.5" height="35.5" />
		</g>
		<g transform="translate(945,875)">
			<rect width="35.5" height="35.5" />
		</g>
		<g transform="translate(350,910)">
			<rect width="35.5" height="35.5" />
		</g>
		<g transform="translate(420,910)">
			<rect width="35.5" height="35.5" />
		</g>
		<g transform="translate(455,910)">
			<rect width="35.5" height="35.5" />
		</g>
		<g transform="translate(525,910)">
			<rect width="35.5" height="35.5" />
		</g>
		<g transform="translate(595,910)">
			<rect width="35.5" height="35.5" />
		</g>
		<g transform="translate(665,910)">
			<rect width="35.5" height="35.5" />
		</g>
		<g transform="translate(805,910)">
			<rect width="35.5" height="35.5" />
		</g>
		<g transform="translate(840,910)">
			<rect width="35.5" height="35.5" />
		</g>
		<g transform="translate(910,910)">
			<rect width="35.5" height="35.5" />
		</g>
		<g transform="translate(945,910)">
			<rect width="35.5" height="35.5" />
		</g>
		<g transform="translate(980,910)">
			<rect width="35.5" height="35.5" />
		</g>
		<g transform="translate(420,945)">
			<rect width="35.5" height="35.5" />
		</g>
		<g transform="translate(455,945)">
			<rect width="35.5" height="35.5" />
		</g>
		<g transform="translate(735,945)">
			<rect width="35.5" height="35.5" />
		</g>
		<g transform="translate(770,945)">
			<rect width="35.5" height="35.5" />
		</g>
		<g transform="translate(805,945)">
			<rect width="35.5" height="35.5" />
		</g>
		<g transform="translate(840,945)">
			<rect width="35.5" height="35.5" />
		</g>
		<g transform="translate(875,945)">
			<rect width="35.5" height="35.5" />
		</g>
		<g transform="translate(910,945)">
			<rect width="35.5" height="35.5" />
		</g>
		<g transform="translate(980,945)">
			<rect width="35.5" height="35.5" />
		</g>
		<g transform="translate(280,980)">
			<rect width="35.5" height="35.5" />
		</g>
		<g transform="translate(315,980)">
			<rect width="35.5" height="35.5" />
		</g>
		<g transform="translate(385,980)">
			<rect width="35.5" height="35.5" />
		</g>
		<g transform="translate(490,980)">
			<rect width="35.5" height="35.5" />
		</g>
		<g transform="translate(665,980)">
			<rect width="35.5" height="35.5" />
		</g>
		<g transform="translate(700,980)">
			<rect width="35.5" height="35.5" />
		</g>
		<g transform="translate(735,980)">
			<rect width="35.5" height="35.5" />
		</g>
		<g transform="translate(770,980)">
			<rect width="35.5" height="35.5" />
		</g>
		<g transform="translate(0,0) scale(2.45, 2.45)">
			<rect x="15" y="15" style="fill:none;" width="70" height="70" />
			<path d="M85,0H15H0v15v70v15h15h70h15V85V15V0H85z M85,85H15V15h70V85z" />
		</g>
		<g transform="translate(770,0) scale(2.45, 2.45)">
			<rect x="15" y="15" style="fill:none;" width="70" height="70" />
			<path d="M85,0H15H0v15v70v15h15h70h15V85V15V0H85z M85,85H15V15h70V85z" />
		</g>
		<g transform="translate(0,770) scale(2.45, 2.45)">
			<rect x="15" y="15" style="fill:none;" width="70" height="70" />
			<path d="M85,0H15H0v15v70v15h15h70h15V85V15V0H85z M85,85H15V15h70V85z" />
		</g>
		<g transform="translate(70,70) scale(1.05, 1.05)">
			<rect width="100" height="100" />
		</g>
		<g transform="translate(840,70) scale(1.05, 1.05)">
			<rect width="100" height="100" />
		</g>
		<g transform="translate(70,840) scale(1.05, 1.05)">
			<rect width="100" height="100" />
		</g>
	</g>
</svg>